<svg xmlns:inkscape="http://www.inkscape.org/namespaces/inkscape" xmlns:sodipodi="http://sodipodi.sourceforge.net/DTD/sodipodi-0.dtd" xmlns="http://www.w3.org/2000/svg" xmlns:svg="http://www.w3.org/2000/svg" id="svg85197" width="367.966" height="208.752" viewBox="0 0 367.966 208.752" sodipodi:docname="Fog's On Top of End.svg" inkscape:version="1.1 (c68e22c387, 2021-05-23)"><defs id="defs85201"></defs><g inkscape:groupmode="layer" inkscape:label="Image" id="g85203"><path id="path33" style="fill:#000000;stroke-width:0.191028" d="m 2.1684793,102.1196 c -1.125743,-0.46573 -1.47015601,-0.75643 -1.82680301,-1.54194 -0.463974,-1.02188 -0.45899,-1.340553 0.03648,-2.332631 0.458773,-0.918593 1.78681801,-1.721713 3.12751601,-1.891327 0.42026,-0.05319 1.53777,-0.195725 2.483355,-0.316817 0.945585,-0.121093 2.08463,-0.390691 2.531219,-0.599078 1.157904,-0.540378 2.5784147,-2.17091 3.0660727,-3.519395 0.498426,-1.37826 1.034736,-6.281546 0.905542,-8.279007 -0.05099,-0.787985 -0.136719,-2.120402 -0.190561,-2.960925 -0.13681,-2.135607 -0.365204,-7.161918 -0.351562,-7.736605 0.0065,-0.262657 0.02128,-5.463376 0.03334,-11.557147 0.02076,-10.460976 -0.09154,-15.644123 -0.542284,-25.024571 -0.106017,-2.206368 -0.247296,-7.609195 -0.31395,-12.006276 L 11.005647,16.359178 10.437914,15.712551 C 9.7708003,14.952758 9.0986853,14.74452 6.7531253,14.570916 c -2.850881,-0.211015 -3.921979,-0.950439 -3.911864,-2.700519 0.0059,-1.02064 0.626376,-2.2739872 1.340851,-2.7084779 1.125145,-0.6842392 3.275013,-0.8236698 13.7461097,-0.8914716 9.85362,-0.063767 25.160596,-0.4123312 25.430337,-0.5790396 0.07551,-0.046641 3.81895,-0.07977 8.318733,-0.073562 4.499783,0.00649 8.670657,0.00259 9.268607,-0.00765 1.175555,-0.020434 2.114848,0.3490246 3.192282,1.2556236 0.704406,0.5927146 1.070386,1.2466205 1.221926,2.1831895 0.15703,0.970515 -0.2012,16.275947 -0.41872,17.889593 -0.19566,1.451486 -0.708745,2.668902 -1.393825,3.307141 -0.480691,0.447841 -1.744345,0.527313 -2.549716,0.160365 -0.624701,-0.284629 -1.425673,-1.814373 -1.425673,-2.72284 0,-0.369719 -0.07967,-1.038791 -0.177043,-1.486807 -0.937645,-4.314198 -1.095642,-4.73312 -2.374477,-6.29561 -1.379479,-1.68545 -3.544726,-3.348326 -5.339748,-4.10086 -2.671184,-1.11982 -4.694917,-1.463402 -8.487251,-1.440879 -1.811233,0.0107 -3.61644,0.109344 -4.011567,0.219071 -0.395135,0.10974 -1.001232,0.200006 -1.346877,0.200577 -1.305807,0.0026 -3.199522,1.37324 -3.954404,2.862927 -1.123932,2.217959 -1.128577,2.282757 -1.074742,14.999194 0.02841,6.718353 0.128786,12.014067 0.236969,12.506136 0.222867,1.013687 0.774525,1.961601 1.364658,2.344897 0.234549,0.152346 0.899243,0.440627 1.477102,0.640614 0.93895,0.324952 1.639581,0.363621 6.590436,0.363621 h 5.539793 l 1.050402,-0.573085 c 1.363269,-0.743783 1.949548,-1.784993 2.293332,-4.072947 0.271227,-1.805058 0.966798,-3.909164 1.486132,-4.495541 0.840225,-0.948719 1.805155,-1.460444 2.753861,-1.460444 1.43314,0 2.378486,0.634251 3.11523,2.09003 0.496623,0.98131 0.61634,4.219812 0.590068,15.96205 -0.02543,11.353624 -0.05443,11.659388 -1.207841,12.735439 -0.879549,0.820544 -1.336621,0.97363 -2.480273,0.830741 -0.822567,-0.102773 -1.20236,-0.273108 -1.787426,-0.801685 -1.361647,-1.230176 -1.574919,-1.767479 -1.626101,-4.096714 -0.0945,-4.300021 -0.48158,-5.039789 -3.099312,-5.923236 -1.456895,-0.491686 -3.535424,-0.566416 -9.782952,-0.351775 -4.261731,0.146424 -4.546554,0.250209 -5.430721,1.979064 -0.871272,1.703633 -0.883402,3.292428 -0.114606,15.017432 0.52202,7.961483 0.612526,9.195194 0.791761,10.793044 0.225649,2.011687 1.1193,4.98726 1.853372,6.17117 0.895007,1.443461 2.532857,2.063019 6.111133,2.311664 3.255083,0.226175 4.438417,0.966007 4.490617,2.807586 0.02368,0.835128 -0.442554,1.315158 -1.753836,1.805778 -0.976256,0.36526 -1.572247,0.40832 -6.707727,0.48477 -15.556905,0.23152 -18.880289,0.27902 -24.26143,0.3466 -3.204478,0.0402 -7.1157647,0.12434 -8.6917427,0.18688 -2.074698,0.0823 -3.023552,0.0483 -3.438491,-0.1234 z m 220.4814407,-3e-5 c -2.10552,-0.14108 -4.85165,-0.39999 -6.10251,-0.57532 -4.33402,-0.60757 -10.24676,-2.33851 -13.3973,-3.922036 -0.77451,-0.38927 -1.73946,-0.80667 -2.14436,-0.92752 -4.07385,-1.21602 -10.87183,-6.39825 -15.1612,-11.55769 -7.57525,-9.11184 -9.1167,-11.46973 -10.44663,-15.97982 -0.3582,-1.21472 -0.77553,-2.62413 -0.9274,-3.13201 -0.15186,-0.50789 -0.45361,-2.89317 -0.67052,-5.30062 -0.33727,-3.74332 -0.33259,-4.8889 0.0323,-7.91093 0.23467,-1.94356 0.4631,-3.93129 0.50762,-4.41718 0.29742,-3.24656 1.58374,-8.75016 2.64498,-11.31678 0.37301,-0.90216 0.75825,-1.97889 0.85608,-2.39275 0.21741,-0.91969 4.34691,-7.82583 5.87905,-9.83211 2.8682,-3.75572 6.25046,-6.67412 11.48911,-9.91338 3.24083,-2.00396 8.57098,-4.45278 12.09512,-5.5568402 5.36719,-1.6814792 18.19924,-2.7009592 26.3886,-2.0965092 12.61714,0.9312297 15.13964,1.2230797 17.05099,1.9728292 3.48698,1.3677902 6.10992,3.6875702 6.9582,6.1539502 0.4002,1.16357 0.5368,2.8929 0.65145,8.2454 0.15424,7.20088 0.0162,8.39396 -1.17924,10.18866 -1.25849,1.8894 -4.54272,2.73909 -6.25381,1.61795 -1.15678,-0.75795 -2.37132,-2.8764 -2.92924,-5.10923 -0.865,-3.46183 -2.78465,-7.07959 -5.00596,-9.43432 -3.5626,-3.77651 -6.24504,-4.65321 -13.41509,-4.38429 -6.24966,0.23438 -9.85145,1.21325 -16.17794,4.39668 -2.59945,1.30802 -3.48671,1.95552 -5.75102,4.19694 -5.20019,5.14763 -7.41049,9.45412 -9.1665,17.85974 -0.67659,3.2387 -0.76508,4.37922 -0.80766,10.4102 -0.0463,6.55597 -0.0209,6.87996 0.79373,10.11107 0.92361,3.66369 3.51681,9.16411 5.41865,11.4934 1.57887,1.93373 4.22856,4.45243 5.22449,4.96624 0.48589,0.25066 1.32047,0.83646 1.85462,1.30177 2.05031,1.78604 4.79588,2.8691 8.50598,3.35546 4.04514,0.53027 5.17396,0.37114 8.47351,-1.19464 3.36191,-1.59536 4.53918,-3.68905 4.88269,-8.68361 0.2733,-3.97346 -0.18638,-6.32999 -1.85384,-9.50379 -1.08862,-2.0721 -1.44365,-2.48625 -2.75782,-3.21736 -0.90089,-0.5012 -2.47691,-1.00944 -3.91356,-1.26201 -2.61025,-0.45895 -3.89465,-1.16231 -4.5948,-2.51623 -0.96127,-1.85893 -0.42635,-3.2901 1.57563,-4.21543 1.32869,-0.61411 1.75716,-0.63623 13.10636,-0.6761 6.45302,-0.0227 16.66086,0.0583 22.68406,0.18002 11.63246,0.23496 11.93006,0.27404 13.25734,1.74066 0.8397,0.92787 0.47688,3.15372 -0.8969,5.50215 -1.18766,2.03026 -2.38371,3.01859 -5.28073,4.36359 -1.39465,0.64753 -1.99527,1.14269 -2.70979,2.23415 -1.5355,2.34552 -1.67279,3.44492 -1.20846,9.67791 0.22519,3.02286 0.40945,7.75686 0.40945,10.51999 v 5.02389 l -0.90717,1.74911 c -0.79972,1.54198 -1.17468,1.90934 -3.16565,3.10163 -2.21845,1.328507 -6.87316,3.019866 -10.79835,3.923716 -4.19649,0.96633 -14.72195,1.30389 -23.11656,0.7414 z m 105.12883,-0.89686 c -0.64785,-0.11968 -2.23804,-0.37175 -3.53374,-0.56016 -3.90546,-0.56784 -10.97625,-4.234036 -14.30742,-7.418376 -1.6603,-1.58712 -2.06889,-2.19284 -2.83954,-4.20969 -0.4951,-1.29571 -0.99209,-3.08466 -1.10438,-3.97546 -0.11231,-0.8908 -0.40938,-2.81227 -0.66016,-4.26994 -0.25078,-1.45767 -0.47128,-4.24049 -0.49004,-6.18405 -0.0397,-4.12284 0.30499,-5.08305 2.16571,-6.0323 1.95805,-0.99893 2.3972,-0.6766 6.41286,4.70715 1.38929,1.86258 3.14323,4.11534 3.89769,5.00613 0.75445,0.8908 2.17328,2.67976 3.15298,3.97546 2.50748,3.31636 4.54984,5.11448 7.4928,6.59679 2.97158,1.49672 5.07127,1.78242 9.11102,1.23976 7.47133,-1.00367 12.90051,-7.3789 12.24668,-14.38074 -0.53371,-5.7153 -4.44221,-9.19194 -18.3052,-16.28257 -1.45766,-0.74556 -3.31288,-1.76022 -4.1227,-2.25477 -0.80981,-0.49457 -2.46625,-1.46788 -3.68098,-2.16294 -6.40694,-3.66605 -8.89814,-5.75317 -11.4207,-9.56834 -2.40344,-3.63502 -3.07382,-6.05104 -3.22701,-11.63011 -0.12304,-4.48067 -0.1056,-4.64225 0.93741,-8.68712 1.45237,-5.6324 2.35698,-7.34258 5.61214,-10.60991 3.10284,-3.11441 4.14226,-3.86459 8.68774,-6.2703897 4.58023,-2.4242097 6.69417,-2.8097697 15.31226,-2.7927497 4.73852,0.009 6.91203,0.13558 8.63977,0.50168 2.74766,0.58224 9.1417,3.4981692 11.14477,5.0824294 1.37651,1.08869 3.27725,3.93565 3.98977,5.97594 0.55171,1.57982 1.02308,7.25542 0.79619,9.5866 -0.41881,4.30272 -2.231,7.80654 -4.03527,7.80204 -2.90804,-0.007 -4.19202,-1.53091 -4.95393,-5.87871 -0.81432,-4.64687 -2.85985,-8.28565 -5.72796,-10.18937 -1.73992,-1.15491 -3.50459,-1.74743 -6.44386,-2.16368 -1.82863,-0.25896 -2.34991,-0.20204 -5.43596,0.59367 -3.88279,1.00114 -5.18677,1.67499 -7.64452,3.95043 -3.4769,3.21897 -4.18766,7.71884 -1.89243,11.98127 1.85277,3.4408 10.3091,10.18943 15.24441,12.16588 8.80309,3.52541 14.08559,6.54926 18.11055,10.36706 3.3019,3.13192 4.50729,5.11659 5.90341,9.71985 1.06816,3.52196 1.47078,8.92329 0.8865,11.89313 -0.47181,2.39806 -2.26475,6.87852 -3.87554,9.68481 -1.7836,3.10725 -6.90703,8.08992 -10.12921,9.8509 -3.21491,1.757027 -9.60406,3.836406 -13.10429,4.264866 -1.53865,0.18835 -3.52638,0.46207 -4.41718,0.60822 -1.86387,0.30584 -6.6614,0.28714 -8.39264,-0.0327 z m -217.6799,-3.403849 c -1.90683,-0.395747 -9.30041,-2.156847 -10.759933,-2.562957 -2.26365,-0.62986 -6.08382,-2.58331 -6.99575,-3.5773 -0.40491,-0.44136 -1.75087,-1.56038 -2.99102,-2.48675 -4.00278,-2.98996 -8.48935,-8.42279 -10.58699,-12.81995 -3.20511,-6.71864 -3.60637,-9.25201 -3.59141,-22.67484 0.009,-7.73743 0.10156,-9.87113 0.51947,-11.92638 0.76556,-3.76491 1.31497,-5.5736 2.23626,-7.36197 0.45891,-0.89079 1.50473,-3.02403 2.32405,-4.74054 1.62077,-3.39554 5.46084,-8.77278 7.1168,-9.96565 0.54856,-0.39516 1.75899,-1.38903 2.68984,-2.20859 0.93085,-0.81957 2.2653,-1.82141 2.96545,-2.22632 0.70015,-0.40491 1.81478,-1.09464 2.47695,-1.53273 2.92762,-1.93687 7.318953,-4.1611302 10.132113,-5.1319997 3.0289,-1.0453397 3.09784,-1.0544397 9.08886,-1.1962297 5.0878,-0.12041 6.66177,-0.0485 10.01227,0.4571197 3.65364,0.55141 7.9817,1.6381295 10.15951,2.5508897 0.48589,0.20364 1.21472,0.46864 1.61963,0.58887 1.35291,0.40173 4.83928,2.25759 6.63897,3.53404 0.97904,0.69438 3.2318,2.77304 5.00613,4.61919 4.75793,4.95057 7.28853,8.95353 9.97469,15.77822 0.91077,2.31398 1.83743,4.96429 2.05924,5.88957 0.22181,0.92528 0.5475,2.04771 0.72376,2.49429 0.35759,0.90602 0.72813,6.39581 0.69056,10.23098 -0.0685,6.98803 -1.95904,15.57506 -4.76038,21.62164 -0.95206,2.05499 -4.17068,7.32144 -5.71588,9.35258 -2.16566,2.84672 -9.71912,8.96617 -13.29194,10.76846 -0.64785,0.32681 -2.63558,1.03451 -4.41717,1.57266 l -3.23927,0.978437 -9.71779,0.055 c -5.34478,0.0302 -10.00994,-0.006 -10.36702,-0.0798 z m 13.95918,-10.258387 c 5.11842,-1.64375 9.509,-5.31658 12.28099,-10.27339 2.99357,-5.353 3.88841,-11.1766 3.60214,-23.44278 -0.25514,-10.93214 -0.60349,-13.8862 -2.27841,-19.32103 -0.77051,-2.50019 -1.37871,-3.71482 -3.39868,-6.78753 -1.47491,-2.24357 -2.91351,-3.68596 -5.40556,-5.41976 -4.168,-2.89984 -11.0918,-3.81929 -16.24528,-2.15735 -4.69569,1.51433 -9.53662,6.14321 -12.28516,11.74702 -2.813343,5.73591 -3.218903,8.08817 -3.554103,20.61349 -0.35034,13.09149 0.37843,19.75939 2.65841,24.32334 2.529623,5.06365 8.860143,10.08321 13.671533,10.84034 3.34134,0.52582 3.42286,0.53351 6.09523,0.57536 2.00551,0.0314 3.06013,-0.12003 4.85889,-0.69771 z m 148.65324,-47.16942 c -1.03495,-0.26984 -1.61964,-1.02084 -1.61964,-2.08041 0,-0.89998 0.3573,-1.3627 3.20511,-4.15067 2.55781,-2.50407 3.38956,-3.53103 4.11843,-5.085 1.93328,-4.1219 2.26769,-7.64077 0.97908,-10.30268 -0.37007,-0.76444 -1.90819,-2.60946 -3.56107,-4.27162 -3.17295,-3.19076 -3.55901,-3.9383 -3.56198,-6.8975994 -0.003,-1.76001 0.28385,-2.35291 2.03004,-4.21402 3.05495,-3.25599007 9.35989,-4.3754801 13.70365,-2.43321007 2.49559,1.11589007 5.5046,4.32297007 7.20342,7.67757977 1.26599,2.4998897 1.29759,2.6323197 1.43113,5.9940497 0.14695,3.69971 -0.29074,6.65884 -1.40189,9.47788 -1.64431,4.17161 -7.82144,10.71578 -12.93644,13.70506 -3.31118,1.93511 -7.61919,3.09441 -9.58984,2.58064 z m -4.10558,168.216076 c -0.0542,-0.0542 -6.87314,-0.12053 -15.15319,-0.14739 -13.53351,-0.0439 -15.1125,-0.0804 -15.62704,-0.36166 -1.61909,-0.88495 -2.42018,-2.80529 -1.72834,-4.14314 0.36742,-0.71055 1.16376,-1.28677 3.44544,-2.49311 3.25979,-1.72346 4.39725,-2.44279 5.10962,-3.23128 1.35447,-1.49925 1.32127,-1.29388 1.37334,-8.49702 0.0258,-3.57552 -0.0243,-7.57414 -0.11144,-8.88581 -0.18686,-2.81292 -0.55678,-13.29482 -0.64638,-18.31576 -0.0347,-1.94128 -0.15938,-4.64571 -0.27719,-6.00985 -0.11782,-1.36414 -0.25501,-5.82861 -0.30487,-9.92104 -0.16907,-13.88017 -0.15585,-13.5688 -0.65183,-15.34406 -0.34187,-1.22374 -0.73051,-2.02536 -1.62867,-3.35935 -1.85769,-2.75918 -3.52487,-4.0745 -6.66543,-5.25871 -1.55987,-0.58818 -2.05527,-0.87427 -2.63628,-1.52238 -0.626,-0.69829 -0.71546,-0.91798 -0.71546,-1.75701 0,-0.86836 0.0711,-1.0266 0.75264,-1.67494 0.41396,-0.39379 1.25104,-0.90514 1.8602,-1.13636 1.00488,-0.38142 1.46125,-0.42098 4.92333,-0.42662 2.09868,-0.003 5.06068,0.10041 6.58222,0.23072 1.70417,0.14595 7.78477,0.26909 15.8355,0.32068 11.35384,0.0728 13.44634,0.13124 15.94371,0.44551 6.13713,0.77233 10.03146,2.51992 14.22666,6.38426 6.89243,6.34883 7.19063,6.71041 9.60877,11.65091 3.71457,7.58933 5.27251,14.10085 6.20817,25.94732 0.34,4.30495 -0.15611,11.09853 -1.04495,14.30919 -0.26147,0.9444 -0.62154,2.27516 -0.80018,2.95723 -1.36965,5.22972 -4.8672,13.52211 -6.62728,15.71284 -0.43359,0.53966 -1.03948,1.36755 -1.34642,1.83975 -1.39915,2.15254 -4.06072,4.91227 -6.21459,6.44383 -0.68207,0.485 -1.48944,1.08502 -1.79417,1.33335 -1.07627,0.87715 -3.58929,2.01866 -6.88674,3.12821 -1.72265,0.57966 -6.75811,1.48426 -8.84237,1.58854 -5.01069,0.25061 -6.07594,0.28398 -6.16678,0.19315 z m 10.52284,-9.61779 c 3.40877,-1.07567 8.15412,-5.63754 10.14447,-9.75223 2.69858,-5.57882 3.37865,-8.24319 3.57363,-14.00058 0.14275,-4.21545 -0.0705,-18.22768 -0.32604,-21.41982 -0.19462,-2.43151 -0.39211,-3.46173 -1.566,-8.16958 -0.93532,-3.75107 -2.22937,-6.91345 -3.50649,-8.56907 -0.3168,-0.41067 -0.84056,-1.18336 -1.16393,-1.7171 -2.08527,-3.44187 -4.73662,-6.20843 -7.72524,-8.06091 -4.1078,-2.5462 -6.13738,-3.16117 -9.50093,-2.87886 -3.36981,0.28287 -5.11693,1.18114 -6.04356,3.10731 -0.94177,1.95768 -0.98744,18.28173 -0.10004,35.76662 0.10384,2.04621 0.23655,7.79238 0.2949,12.76925 0.0584,4.97688 0.13737,9.09943 0.17556,9.16125 0.0382,0.0618 0.12667,1.44162 0.19659,3.06624 0.20386,4.73625 0.45139,5.40708 2.90691,7.8779 1.44366,1.45266 3.13284,2.38553 5.20217,2.87288 0.68207,0.16064 1.41183,0.33503 1.6217,0.38755 0.8903,0.22277 4.60572,-0.0588 5.8163,-0.44085 z m -180.433813,9.61779 c -3.32024,-0.12807 -11.46994,-0.28417 -18.11043,-0.34686 -6.64049,-0.0627 -12.93497,-0.20143 -13.98773,-0.30826 -1.05276,-0.10684 -2.61709,-0.2661 -3.47632,-0.35385 -1.93899,-0.1981 -3.59116,-1.46924 -3.59116,-2.76303 0,-0.88353 1.9571,-3.8074 4.76018,-7.11166 2.6148,-3.08228 2.84328,-3.7698 3.16942,-9.53645 0.15542,-2.74807 0.36206,-15.53148 0.45921,-28.40755 0.16806,-22.27895 0.14827,-23.62042 -0.40918,-27.74088 -0.32219,-2.38142 -0.75596,-4.89921 -0.96389,-5.59509 -0.44121,-1.47648 -2.27081,-3.43892 -4.05447,-4.34886 -1.50631,-0.76847 -2.36975,-2.12425 -2.37123,-3.7233 0,-1.63677 0.80558,-2.58075 2.8768,-3.36483 1.52896,-0.57879 2.01667,-0.61934 5.22027,-0.43394 1.94356,0.11246 11.21964,0.15955 20.6135,0.10463 33.759083,-0.19742 32.214923,-0.25764 33.014023,1.28767 0.41683,0.80607 0.45117,1.81437 0.27784,8.15858 -0.28023,10.25675 -0.67848,13.06381 -2.06589,14.56085 -1.1146,1.20268 -2.59741,1.08094 -3.87925,-0.31848 -0.55144,-0.60203 -1.14358,-1.62903 -1.31582,-2.28221 -1.15011,-4.36111 -2.78959,-7.81349 -4.80194,-10.11175 -2.33707,-2.66912 -7.18021,-3.51666 -13.691463,-2.3959 -2.65964,0.45776 -5.29434,2.49193 -6.93794,5.35653 -1.14897,2.00254 -1.26493,5.35153 -0.47676,13.76723 1.2273,13.1047 1.30354,13.55902 2.55319,15.21535 1.08592,1.43935 2.30835,1.71837 7.48352,1.70818 4.108893,-0.008 4.685653,-0.0729 5.779143,-0.6498 1.27135,-0.67067 2.81003,-2.57018 4.04107,-4.98882 0.91574,-1.79914 1.79753,-2.58917 3.28408,-2.94242 2.27853,-0.54143 4.2675,0.37089 5.28669,2.42497 0.53548,1.0792 0.576,1.84773 0.58896,11.17119 0.0138,9.93502 0.009,10.02425 -0.68849,11.56658 -0.90158,1.99504 -2.08803,2.86286 -3.91404,2.86286 -2.28936,0 -2.78079,-0.54083 -5.2178,-5.74233 -0.64503,-1.37668 -1.5903,-3.00276 -2.10067,-3.61351 -1.58226,-1.89353 -2.14642,-2.04787 -7.395733,-2.02322 -5.2386,0.0244 -5.55605,0.1142 -7.58191,2.14007 -2.7757,2.77569 -3.14757,4.49998 -3.04038,14.09789 0.10289,9.21305 0.27213,10.23654 1.97416,11.93854 2.42008,2.42009 1.92374,2.33274 13.814993,2.43133 11.28762,0.0936 11.79324,0.0412 13.64378,-1.41441 0.95534,-0.7515 3.29262,-3.91317 4.79693,-6.48889 2.06247,-3.53141 4.31835,-5.24239 5.83901,-4.42854 0.31895,0.17068 0.88992,0.80896 1.26879,1.41838 0.61805,0.99404 0.6889,1.45632 0.6889,4.49451 0,3.96565 -0.2948,5.04091 -2.70463,9.86503 -2.53205,5.06877 -4.38467,6.56552 -8.40321,6.78917 -4.66451,0.25956 -14.5263,0.29625 -20.254123,0.0753 z m 60.368103,-0.13172 c -0.40491,-0.0494 -4.31411,-0.1301 -8.68712,-0.17922 -8.98704,-0.10095 -9.3847,-0.18764 -10.4511,-2.27794 -1.11204,-2.17979 -0.59847,-4.06887 1.52425,-5.60654 0.66635,-0.48271 1.34683,-0.87764 1.51218,-0.87764 0.86241,0 4.10627,-1.92889 4.8626,-2.89148 2.28492,-2.90792 2.54942,-4.72915 2.25321,-15.51343 -0.12457,-4.53497 -0.2527,-11.88957 -0.28471,-16.34355 -0.052,-7.24176 -0.42045,-17.43478 -0.91535,-25.32516 -0.0965,-1.53865 -0.3734,-3.50046 -0.61535,-4.3596 -0.83988,-2.98228 -4.73792,-7.78475 -8.89051,-10.95328 -0.9552,-0.72883 -2.01712,-1.73089 -2.35983,-2.22682 -1.13589,-1.64363 -0.68007,-3.83461 0.96053,-4.61695 2.19024,-1.04446 3.91748,-1.1649 15.20163,-1.05995 10.16649,0.0946 11.12475,0.14704 12.07362,0.66087 2.42482,1.31314 5.18662,4.37893 9.86503,10.95095 1.13374,1.59263 3.39598,4.6896 5.02719,6.88214 1.63123,2.19254 3.73681,5.24534 4.67909,6.78399 0.94227,1.53865 2.6857,4.05644 3.8743,5.59509 1.18861,1.53865 2.79343,3.623 3.56631,4.63192 0.77289,1.00888 2.86292,3.72759 4.64452,6.04158 1.78159,2.31398 3.42605,4.53635 3.65436,4.93864 1.2654,2.22976 4.52357,5.67486 5.23698,5.53746 1.10314,-0.21244 1.37088,-1.58736 1.56671,-8.0453 0.44858,-14.79345 -0.10666,-28.4216 -1.322,-32.44862 -0.52839,-1.75073 -2.12543,-3.3145 -4.89521,-4.7932 -1.67543,-0.89447 -3.21017,-2.64989 -3.21017,-3.67176 0,-0.87254 1.16299,-2.49915 2.15273,-3.01098 0.77383,-0.40014 2.09895,-0.47488 8.43784,-0.47594 4.13592,0 8.82938,0.0174 10.42987,0.0401 l 2.91001,0.0413 0.95552,1.01313 c 0.5255,0.55721 1.04378,1.36496 1.15171,1.79496 0.28305,1.12779 -0.77319,3.05869 -2.21802,4.05473 -0.92975,0.64097 -1.45086,1.36674 -2.32585,3.23927 -0.6202,1.3273 -1.2967,3.2746 -1.50331,4.32736 -0.29336,1.49462 -0.36359,9.33556 -0.32051,35.77914 0.0609,37.37203 0.0382,37.95784 -1.52095,39.41436 -0.80025,0.74753 -1.07335,0.83013 -2.38528,0.72124 -2.01523,-0.16724 -4.51733,-1.37027 -6.07712,-2.92197 -1.79638,-1.78701 -7.14429,-8.14557 -9.11202,-10.83398 -0.89869,-1.22783 -3.28397,-4.30907 -5.30061,-6.84724 -8.94694,-11.2606 -15.01761,-19.67626 -20.76042,-28.77992 -0.4936,-0.78249 -1.88501,-2.70051 -3.09202,-4.26228 -1.20701,-1.5618 -2.69701,-3.53401 -3.31112,-4.3827 -1.88872,-2.61028 -3.59016,-4.34064 -4.26805,-4.34064 -0.80705,0 -1.24382,0.83102 -1.70023,3.23485 -0.62907,3.31323 -0.70855,5.3265 -0.87981,22.28519 -0.18667,18.48718 0.0307,23.09878 1.19873,25.42475 0.90425,1.80076 1.43384,2.21483 3.89954,3.04903 3.02391,1.02307 4.75103,2.1092 5.24896,3.30089 0.54977,1.31579 0.525,3.08093 -0.0639,4.55279 -0.65318,1.63247 -1.99403,2.28171 -5.15964,2.4983 -1.35281,0.0926 -2.92344,0.20734 -3.49031,0.2551 -0.56687,0.0477 -1.36196,0.0463 -1.76687,-0.003 z"></path></g></svg>